<svg xmlns="http://www.w3.org/2000/svg" width="512" height="422.984" viewBox="0 0 512 422.984">
  <g id="Group_36099" data-name="Group 36099" transform="translate(7602 -2454)">
    <g id="_61df48b92f5df23f2e93aaa2_error" data-name="61df48b92f5df23f2e93aaa2_error" transform="translate(-7602 2409.492)">
      <g id="Group_36098" data-name="Group 36098">
        <path id="Path_38668" data-name="Path 38668" d="M240.625,467.492h0c-66.386,0-122.241-3.115-165.759-6.932a39.907,39.907,0,0,1-33.337-55.01A1378.348,1378.348,0,0,1,146.587,202.179c28.123-45.021,55.272-82.968,78.23-112.824a39.928,39.928,0,0,1,63.346-.007c22.844,29.707,49.848,67.439,77.831,112.183a1379.333,1379.333,0,0,1,104.671,202.1,39.944,39.944,0,0,1-33.387,55.081c-66.342,5.831-132.272,8.778-196.653,8.778Z" fill="#2f96ba"/>
        <path id="Path_38669" data-name="Path 38669" d="M265.871,74.846A36.267,36.267,0,0,0,245.4,89.49c-21.061,30.12-45.964,68.407-71.76,113.828A1445.771,1445.771,0,0,0,77.263,408.487c-8.552,22.75,3.3,47.889,23.914,54.174q-13.826-1-26.313-2.1a39.913,39.913,0,0,1-33.341-55.015A1378.875,1378.875,0,0,1,146.59,202.18c28.124-45.018,55.269-82.973,78.229-112.821a39.877,39.877,0,0,1,41.052-14.513Z" fill="#a8d4e2"/>
        <g id="Group_36095" data-name="Group 36095">
          <path id="Path_38670" data-name="Path 38670" d="M441.838,272.061v-2.894a19.418,19.418,0,0,1,18.089-19.372l31.327-2.149A19.417,19.417,0,0,1,512,267.018v7.192a19.418,19.418,0,0,1-20.746,19.372l-31.327-2.149A19.417,19.417,0,0,1,441.838,272.061Z" fill="#2f96ba"/>
          <path id="Path_38671" data-name="Path 38671" d="M417.664,178.948l-1.447-2.507A19.418,19.418,0,0,1,422.2,150.62L448.251,133.1a19.418,19.418,0,0,1,27.653,6.4l3.6,6.229a19.418,19.418,0,0,1-8.281,27.15l-28.2,13.8a19.416,19.416,0,0,1-25.351-7.732Z" fill="#2f96ba"/>
          <path id="Path_38672" data-name="Path 38672" d="M350.172,110.4l-2.507-1.447A19.417,19.417,0,0,1,339.933,83.6l13.8-28.2a19.419,19.419,0,0,1,27.15-8.281l6.229,3.6a19.418,19.418,0,0,1,6.4,27.653l-17.524,26.055a19.418,19.418,0,0,1-25.821,5.979Z" fill="#2f96ba"/>
        </g>
        <g id="Group_36096" data-name="Group 36096">
          <path id="Path_38673" data-name="Path 38673" d="M70.162,272.061v-2.894a19.418,19.418,0,0,0-18.089-19.372l-31.327-2.149A19.418,19.418,0,0,0,0,267.018v7.192a19.418,19.418,0,0,0,20.746,19.372l31.327-2.149A19.417,19.417,0,0,0,70.162,272.061Z" fill="#2f96ba"/>
          <path id="Path_38674" data-name="Path 38674" d="M94.336,178.948l1.447-2.507A19.418,19.418,0,0,0,89.8,150.62L63.749,133.1A19.418,19.418,0,0,0,36.1,139.5l-3.6,6.229a19.418,19.418,0,0,0,8.281,27.15l28.2,13.8A19.416,19.416,0,0,0,94.336,178.948Z" fill="#2f96ba"/>
          <path id="Path_38675" data-name="Path 38675" d="M161.828,110.4l2.507-1.447A19.417,19.417,0,0,0,172.067,83.6l-13.8-28.2a19.419,19.419,0,0,0-27.15-8.281l-6.229,3.6a19.418,19.418,0,0,0-6.4,27.653l17.524,26.055A19.418,19.418,0,0,0,161.828,110.4Z" fill="#2f96ba"/>
        </g>
        <g id="Group_36097" data-name="Group 36097">
          <path id="Path_38676" data-name="Path 38676" d="M244.9,180.12a111.734,111.734,0,0,1,22.41,0,19.069,19.069,0,0,1,17.035,18.336q1.709,46.573,0,93.147a19.067,19.067,0,0,1-17.035,18.336,111.734,111.734,0,0,1-22.41,0A19.069,19.069,0,0,1,227.866,291.6q-1.709-46.574,0-93.147A19.067,19.067,0,0,1,244.9,180.12Z" fill="#fff"/>
          <path id="Path_38677" data-name="Path 38677" d="M245.443,344.015q10.663-.51,21.327,0a19.063,19.063,0,0,1,18.107,18.153q.646,14.328,0,28.657a19.063,19.063,0,0,1-18.107,18.153q-10.664.51-21.327,0a19.063,19.063,0,0,1-18.107-18.153q-.646-14.328,0-28.657A19.063,19.063,0,0,1,245.443,344.015Z" fill="#fff"/>
        </g>
      </g>
    </g>
  </g>
</svg>
